<svg xmlns="http://www.w3.org/2000/svg" width="128" height="128" viewBox="0 0 24 24" fill="none" role="img" color="#464646">
<path fill-rule="evenodd" clip-rule="evenodd" d="M3.25 21V5C3.25 3.48122 4.48122 2.25 6 2.25H14C15.5188 2.25 16.75 3.48122 16.75 5V8.25H18C19.5188 8.25 20.75 9.48122 20.75 11V21C20.75 21.4142 20.4142 21.75 20 21.75H4C3.58579 21.75 3.25 21.4142 3.25 21ZM16.75 9.75V20.25H19.25V11C19.25 10.3096 18.6904 9.75 18 9.75H16.75ZM4.75 20.25H15.25V5C15.25 4.30964 14.6904 3.75 14 3.75H6C5.30964 3.75 4.75 4.30964 4.75 5V20.25ZM7.25 7C7.25 6.58579 7.58579 6.25 8 6.25H12C12.4142 6.25 12.75 6.58579 12.75 7C12.75 7.41421 12.4142 7.75 12 7.75H8C7.58579 7.75 7.25 7.41421 7.25 7ZM7.25 11C7.25 10.5858 7.58579 10.25 8 10.25H12C12.4142 10.25 12.75 10.5858 12.75 11C12.75 11.4142 12.4142 11.75 12 11.75H8C7.58579 11.75 7.25 11.4142 7.25 11ZM8 14.25C7.58579 14.25 7.25 14.5858 7.25 15C7.25 15.4142 7.58579 15.75 8 15.75H12C12.4142 15.75 12.75 15.4142 12.75 15C12.75 14.5858 12.4142 14.25 12 14.25H8ZM8.25 19C8.25 18.3096 8.80964 17.75 9.5 17.75H10.5C11.1904 17.75 11.75 18.3096 11.75 19V20.25H8.25V19Z" fill="#464646"/>
</svg>
