<svg xmlns="http://www.w3.org/2000/svg" width="128" height="128" viewBox="0 0 24 24" fill="none" class="injected-svg" data-src="https://cdn.hugeicons.com/icons/credit-card-duotone-standard.svg?v=1.0.0" xmlns:xlink="http://www.w3.org/1999/xlink" role="img" color="#464646">
<path opacity="0.4" d="M20 4H4C2.89543 4 2 4.89543 2 6V9H22V6C22 4.89543 21.1046 4 20 4Z" fill="#464646"></path>
<path d="M20 4H4C2.89543 4 2 4.89543 2 6V18C2 19.1046 2.89543 20 4 20H20C21.1046 20 22 19.1046 22 18V6C22 4.89543 21.1046 4 20 4Z" stroke="#464646" stroke-width="1.5" stroke-linecap="round" stroke-linejoin="round"></path>
<path d="M10 16H11.5M14.5 16L18 16" stroke="#464646" stroke-width="1.5" stroke-miterlimit="10" stroke-linecap="round" stroke-linejoin="round"></path>
<path d="M2 9H22" stroke="#464646" stroke-width="1.5" stroke-linecap="square" stroke-linejoin="round"></path>
</svg>