<svg xmlns="http://www.w3.org/2000/svg" width="128" height="128" viewBox="0 0 24 24" fill="none" class="injected-svg" data-src="https://cdn.hugeicons.com/icons/dollar-circle-duotone-standard.svg?v=1.0.0" xmlns:xlink="http://www.w3.org/1999/xlink" role="img" color="#464646">
<path opacity="0.4" d="M22 12C22 17.5228 17.5228 22 12 22C6.47715 22 2 17.5228 2 12C2 6.47715 6.47715 2 12 2C17.5228 2 22 6.47715 22 12Z" fill="#464646"></path>
<path d="M22 12C22 17.5228 17.5228 22 12 22C6.47715 22 2 17.5228 2 12C2 6.47715 6.47715 2 12 2C17.5228 2 22 6.47715 22 12Z" stroke="#464646" stroke-width="1.5" stroke-linejoin="round"></path>
<path d="M12 6.5V8M12 8C10.4812 8 9.25 8.92865 9.25 10.0741C9.25 11.2196 10 11.8519 12 11.8519C14 11.8519 15 12.4445 15 13.926C15 15.4075 13.6569 16 12 16M12 8C13.5188 8 14.75 8.92865 14.75 10.0741M12 16V17.5M12 16C10.3431 16 9 15.0715 9 13.926" stroke="#464646" stroke-width="1.5" stroke-linecap="round" stroke-linejoin="round"></path>
</svg>