<svg xmlns="http://www.w3.org/2000/svg" width="128" height="128" viewBox="0 0 24 24" fill="none" role="img" color="#464646">
<path fill-rule="evenodd" clip-rule="evenodd" d="M3.46447 3.46447C2.75 4.17893 2.75 5.31962 2.75 7.6V16.4C2.75 18.6804 2.75 19.8211 3.46447 20.5355C4.17893 21.25 5.31962 21.25 7.6 21.25H16.4C18.6804 21.25 19.8211 21.25 20.5355 20.5355C21.25 19.8211 21.25 18.6804 21.25 16.4V10.25H16C14.7574 10.25 14.1361 10.25 13.7019 9.93415C13.5345 9.81281 13.3872 9.66549 13.2659 9.49807C12.95 9.06394 12.95 8.44263 12.95 7.2V2.75H7.6C5.31962 2.75 4.17893 2.75 3.46447 3.46447ZM14.45 3.40533L20.5947 9.55H16C15.3787 9.55 15.0681 9.55 14.8841 9.36603C14.7 9.18207 14.7 8.87132 14.7 8.25V3.75C14.7 3.59695 14.7 3.49228 14.6941 3.41228C14.6 3.37 14.5267 3.38 14.45 3.40533ZM7.25 13C7.25 12.5858 7.58579 12.25 8 12.25H16C16.4142 12.25 16.75 12.5858 16.75 13C16.75 13.4142 16.4142 13.75 16 13.75H8C7.58579 13.75 7.25 13.4142 7.25 13ZM7.25 17C7.25 16.5858 7.58579 16.25 8 16.25H12C12.4142 16.25 12.75 16.5858 12.75 17C12.75 17.4142 12.4142 17.75 12 17.75H8C7.58579 17.75 7.25 17.4142 7.25 17Z" fill="#464646"/>
</svg>
