<svg xmlns="http://www.w3.org/2000/svg" width="128" height="128" viewBox="0 0 24 24" fill="none" class="injected-svg" data-src="https://cdn.hugeicons.com/icons/home-08-duotone-standard.svg?v=1.0.0" xmlns:xlink="http://www.w3.org/1999/xlink" role="img" color="#464646">
<path opacity="0.4" d="M3 9.98834V19.5C3 20.6046 3.89543 21.5 5 21.5H19C20.1046 21.5 21 20.6046 21 19.5V9.98834C21 9.3654 20.7097 8.77803 20.2149 8.39963L12.8972 2.80373C12.6396 2.60673 12.3243 2.5 12 2.5C11.6757 2.5 11.3604 2.60673 11.1028 2.80373L3.7851 8.39963C3.29026 8.77804 3 9.3654 3 9.98834Z" fill="#464646"></path>
<path d="M3 9.98834V19.5C3 20.6046 3.89543 21.5 5 21.5H19C20.1046 21.5 21 20.6046 21 19.5V9.98834C21 9.3654 20.7097 8.77803 20.2149 8.39963L12.8972 2.80373C12.6396 2.60673 12.3243 2.5 12 2.5C11.6757 2.5 11.3604 2.60673 11.1028 2.80373L3.7851 8.39963C3.29026 8.77804 3 9.3654 3 9.98834Z" stroke="#464646" stroke-width="1.5" stroke-linecap="round" stroke-linejoin="round"></path>
<path d="M17 15.5H15V17.5H17V15.5Z" stroke="#464646" stroke-width="1.5" stroke-linejoin="round"></path>
</svg>