<svg xmlns="http://www.w3.org/2000/svg" width="128" height="128" viewBox="0 0 24 24" fill="none" class="injected-svg" data-src="https://cdn.hugeicons.com/icons/server-stack-01-duotone-standard.svg?v=1.0.0" xmlns:xlink="http://www.w3.org/1999/xlink" role="img" color="#464646">
<path d="M21 4H3C2.44772 4 2 4.44772 2 5V9C2 9.55228 2.44772 10 3 10H21C21.5523 10 22 9.55228 22 9V5C22 4.44772 21.5523 4 21 4Z" stroke="#464646" stroke-width="1.5" stroke-linecap="round" stroke-linejoin="round"></path>
<path d="M21 14H3C2.44772 14 2 14.4477 2 15V19C2 19.5523 2.44772 20 3 20H21C21.5523 20 22 19.5523 22 19V15C22 14.4477 21.5523 14 21 14Z" stroke="#464646" stroke-width="1.5" stroke-linecap="round" stroke-linejoin="round"></path>
<path opacity="0.4" d="M21 4H3C2.44772 4 2 4.44772 2 5V9C2 9.55228 2.44772 10 3 10H21C21.5523 10 22 9.55228 22 9V5C22 4.44772 21.5523 4 21 4Z" fill="#464646"></path>
<path opacity="0.4" d="M21 14H3C2.44772 14 2 14.4477 2 15V19C2 19.5523 2.44772 20 3 20H21C21.5523 20 22 19.5523 22 19V15C22 14.4477 21.5523 14 21 14Z" fill="#464646"></path>
<path d="M6.125 7H6M6.25 7C6.25 7.13807 6.13807 7.25 6 7.25C5.86193 7.25 5.75 7.13807 5.75 7C5.75 6.86193 5.86193 6.75 6 6.75C6.13807 6.75 6.25 6.86193 6.25 7Z" stroke="#464646" stroke-width="1.5" stroke-linecap="round" stroke-linejoin="round"></path>
<path d="M10.125 7H10M10.25 7C10.25 7.13807 10.1381 7.25 10 7.25C9.86193 7.25 9.75 7.13807 9.75 7C9.75 6.86193 9.86193 6.75 10 6.75C10.1381 6.75 10.25 6.86193 10.25 7Z" stroke="#464646" stroke-width="1.5" stroke-linecap="round" stroke-linejoin="round"></path>
<path d="M6.125 17H6M6.25 17C6.25 17.1381 6.13807 17.25 6 17.25C5.86193 17.25 5.75 17.1381 5.75 17C5.75 16.8619 5.86193 16.75 6 16.75C6.13807 16.75 6.25 16.8619 6.25 17Z" stroke="#464646" stroke-width="1.5" stroke-linecap="round" stroke-linejoin="round"></path>
<path d="M10.125 17H10M10.25 17C10.25 17.1381 10.1381 17.25 10 17.25C9.86193 17.25 9.75 17.1381 9.75 17C9.75 16.8619 9.86193 16.75 10 16.75C10.1381 16.75 10.25 16.8619 10.25 17Z" stroke="#464646" stroke-width="1.5" stroke-linecap="round" stroke-linejoin="round"></path>
</svg>