<svg xmlns="http://www.w3.org/2000/svg" width="128" height="128" viewBox="0 0 24 24" fill="none" role="img" color="#464646">
<path fill-rule="evenodd" clip-rule="evenodd" d="M11.3874 1.57499C11.7695 1.40834 12.2305 1.40834 12.6126 1.57499C14.3521 2.32363 16.2616 2.75 18.2857 2.75C18.7 2.75 19.0357 3.08579 19.0357 3.5V11C19.0357 15.2832 16.0524 18.8484 12.0714 19.9286C12.0238 19.9414 11.9762 19.9414 11.9286 19.9286C7.94762 18.8484 4.96429 15.2832 4.96429 11V3.5C4.96429 3.08579 5.30007 2.75 5.71429 2.75C7.73836 2.75 9.64793 2.32363 11.3874 1.57499ZM10.4697 12.5303L15.5303 7.46967C15.8232 7.17678 15.8232 6.70191 15.5303 6.40901C15.2374 6.11612 14.7626 6.11612 14.4697 6.40901L10 10.8787L9.53033 10.409C9.23744 10.1161 8.76256 10.1161 8.46967 10.409C8.17678 10.7019 8.17678 11.1768 8.46967 11.4697L9.46967 12.4697C9.61032 12.6103 9.80109 12.6893 10 12.6893C10.1989 12.6893 10.3897 12.6103 10.4697 12.5303ZM3.46429 21.25C3.04007 21.25 2.70429 21.5858 2.70429 22C2.70429 22.4142 3.04007 22.75 3.46429 22.75H20.5357C20.9599 22.75 21.2957 22.4142 21.2957 22C21.2957 21.5858 20.9599 21.25 20.5357 21.25H3.46429Z" fill="#464646"/>
</svg>
